<?xml version="1.0" encoding="UTF-8"?>
<svg width="30px" height="30px" viewBox="0 0 100 100" version="1.1" xmlns="http://www.w3.org/2000/svg" xmlns:xlink="http://www.w3.org/1999/xlink">
    <title>Artboard</title>
    <g id="Artboard" stroke="none" stroke-width="1" fill="none" fill-rule="evenodd">
        <g id="Nuevos-Iconos-sueltos_v-copy-3" transform="translate(17.000000, 5.000000)">
            <path d="M44.7466667,71 L23.24,71 C20.3438725,70.9926247 18,68.6349199 18,65.729097 L18,24.2575251 C18,21.3538741 20.3460279,19 23.24,19 L44.7466667,19 C47.6428035,19 49.9926493,21.3517116 50,24.2575251 L50,65.729097 C49.9570644,68.6221045 47.6300308,70.9569208 44.7466667,71 Z M23.24,21.6889632 C21.8187872,21.6889632 20.6665982,22.844937 20.6665982,24.270903 L20.6665982,65.7424749 C20.6631184,66.4295629 20.9326695,67.0897314 21.4156483,67.5768363 C21.8986269,68.0639413 22.5551931,68.3377926 23.24,68.3377926 L44.7466667,68.3377926 C46.1752432,68.3377926 47.3333333,67.1758293 47.3333333,65.7424749 L47.3333333,24.270903 C47.3259963,22.8427758 46.1700524,21.6889632 44.7466667,21.6889632 L23.24,21.6889632 Z" id="Shape" fill="#00377B" fill-rule="nonzero"></path>
            <path d="M34.7477639,65 L30.2522361,65 C29.5606453,65 29,64.5522847 29,64 C29,63.4477153 29.5606453,63 30.2522361,63 L34.7477639,63 C35.4393547,63 36,63.4477153 36,64 C36,64.5522847 35.4393547,65 34.7477639,65 Z" id="Path" fill="#00377B" fill-rule="nonzero"></path>
            <path d="M35.146212,33.4437714 L36.591855,36.4452238 C36.6941646,36.6769794 36.9046298,36.8359105 37.1468787,36.8643455 L40.3479453,37.3510675 C40.6357112,37.3902921 40.8759143,37.6001783 40.9643578,37.8896803 C41.0528015,38.1791824 40.9735517,38.4961445 40.7609862,38.703073 L38.4376313,41.0690828 C38.2612749,41.2418765 38.178948,41.4955051 38.2182034,41.7450856 L38.773227,45.0980593 C38.8211082,45.3881339 38.707041,45.6814395 38.4792789,45.8539001 C38.2515169,46.0263607 37.9498542,46.0478443 37.7019023,45.9092627 L34.8364314,44.3274162 C34.6198892,44.2201808 34.3688747,44.2201808 34.1523325,44.3274162 L31.273954,45.9092627 C31.0269539,46.040194 30.7306955,46.0148159 30.5072866,45.8435886 C30.2838778,45.6723612 30.1711387,45.3842709 30.2155368,45.0980593 L30.8221906,41.7586056 C30.8602208,41.5116671 30.7835009,41.2605397 30.6156702,41.0826028 L28.2406852,38.7165931 C28.0287222,38.5115071 27.9481551,38.1970767 28.0335959,37.9083822 C28.1190366,37.6196877 28.3552735,37.4081271 28.6408186,37.3645875 L31.8547927,36.8778655 C32.0970416,36.8494306 32.3075068,36.6904995 32.4098164,36.4587438 L33.8425518,33.4167313 C33.9676512,33.1563897 34.2243134,32.9943788 34.5025129,33.0001492 C34.7807126,33.0059196 35.0310503,33.1784464 35.146212,33.4437714 Z" id="Path" fill="#00C8FF" fill-rule="nonzero"></path>
            <line x1="32.5" y1="0" x2="32.5" y2="10" id="Path" stroke="#00377B" stroke-width="2" stroke-linecap="round" stroke-linejoin="round"></line>
            <line x1="0" y1="31.5" x2="10" y2="31.5" id="Path" stroke="#00377B" stroke-width="2" stroke-linecap="round" stroke-linejoin="round"></line>
            <line x1="4" y1="15" x2="11" y2="21" id="Path" stroke="#00377B" stroke-width="2" stroke-linecap="round" stroke-linejoin="round"></line>
            <line x1="18" y1="6" x2="22" y2="14" id="Path" stroke="#00377B" stroke-width="2" stroke-linecap="round" stroke-linejoin="round"></line>
            <line x1="67" y1="31.5" x2="57" y2="31.5" id="Path" stroke="#00377B" stroke-width="2" stroke-linecap="round" stroke-linejoin="round"></line>
            <line x1="61" y1="15" x2="54" y2="21" id="Path" stroke="#00377B" stroke-width="2" stroke-linecap="round" stroke-linejoin="round"></line>
            <line x1="49" y1="6" x2="45" y2="14" id="Path" stroke="#00377B" stroke-width="2" stroke-linecap="round" stroke-linejoin="round"></line>
        </g>
    </g>
</svg>