<?xml version="1.0" encoding="utf-8"?>
<svg width="23px" height="20px" viewBox="0 0 23 20" version="1.1" xmlns="http://www.w3.org/2000/svg" xmlns:xlink="http://www.w3.org/1999/xlink">
<style type="text/css">
	.st0{fill-rule:evenodd;clip-rule:evenodd;fill:#40AB5D;}
	.st1{fill-rule:evenodd;clip-rule:evenodd;fill:url(#rect8192_1_);}
	.st2{fill-rule:evenodd;clip-rule:evenodd;fill:url(#rect8199_1_);}
	.st3{fill-rule:evenodd;clip-rule:evenodd;fill:url(#rect8206_1_);}
	.st4{fill-rule:evenodd;clip-rule:evenodd;fill:url(#rect8213_1_);}
	.st5{fill-rule:evenodd;clip-rule:evenodd;fill:url(#rect8220_1_);}
	.st6{fill-rule:evenodd;clip-rule:evenodd;fill:url(#rect8227_1_);}
	.st7{fill-rule:evenodd;clip-rule:evenodd;fill:url(#rect8234_1_);}
	.st8{fill-rule:evenodd;clip-rule:evenodd;fill:url(#rect8241_1_);}
	.st9{fill-rule:evenodd;clip-rule:evenodd;fill:url(#rect8248_1_);}
</style>
<desc>Created with Sketch.</desc>
<g id="g8252" transform="translate(0,86.843818)">
	<g>
		<rect id="rect8185" x="17" y="-86.3" class="st0" width="4.3" height="2.4"/>
		
			<linearGradient id="rect8192_1_" gradientUnits="userSpaceOnUse" x1="-514.4711" y1="-105.4659" x2="-514.4929" y2="-104.0827" gradientTransform="matrix(1.8318 0 0 -1.8318 961.578 -273.5764)">
			<stop  offset="0" style="stop-color:#358C7B"/>
			<stop  offset="0.5256" style="stop-color:#33A65E"/>
		</linearGradient>
		<rect id="rect8192" x="17" y="-82.9" class="st1" width="4.3" height="2.4"/>
		
			<linearGradient id="rect8199_1_" gradientUnits="userSpaceOnUse" x1="-515.6925" y1="-107.2547" x2="-513.3116" y2="-106.0416" gradientTransform="matrix(1.8318 0 0 -1.8318 961.578 -273.5764)">
			<stop  offset="0" style="stop-color:#222B90"/>
			<stop  offset="1" style="stop-color:#367B99"/>
		</linearGradient>
		<rect id="rect8199" x="17" y="-79.5" class="st2" width="4.3" height="2.4"/>
		
			<linearGradient id="rect8206_1_" gradientUnits="userSpaceOnUse" x1="-524.0288" y1="-108.5024" x2="-521.7186" y2="-108.5024" gradientTransform="matrix(1.8318 0 0 -1.8318 961.578 -273.5764)">
			<stop  offset="0" style="stop-color:#FF9900"/>
			<stop  offset="1" style="stop-color:#FF8000"/>
		</linearGradient>
		<rect id="rect8206" x="1.7" y="-76" class="st3" width="4.3" height="2.4"/>
		
			<linearGradient id="rect8213_1_" gradientUnits="userSpaceOnUse" x1="-521.2365" y1="-108.5024" x2="-518.9263" y2="-108.5024" gradientTransform="matrix(1.8318 0 0 -1.8318 961.578 -273.5764)">
			<stop  offset="0" style="stop-color:#FF8000"/>
			<stop  offset="1" style="stop-color:#CC1953"/>
		</linearGradient>
		<rect id="rect8213" x="6.8" y="-76" class="st4" width="4.3" height="2.4"/>
		
			<linearGradient id="rect8220_1_" gradientUnits="userSpaceOnUse" x1="-518.4444" y1="-108.5024" x2="-516.1342" y2="-108.5024" gradientTransform="matrix(1.8318 0 0 -1.8318 961.578 -273.5764)">
			<stop  offset="0" style="stop-color:#CC1953"/>
			<stop  offset="1" style="stop-color:#241284"/>
		</linearGradient>
		<rect id="rect8220" x="11.9" y="-76" class="st5" width="4.3" height="2.4"/>
		
			<linearGradient id="rect8227_1_" gradientUnits="userSpaceOnUse" x1="-515.655" y1="-108.5024" x2="-513.3447" y2="-108.5024" gradientTransform="matrix(1.8318 0 0 -1.8318 961.578 -273.5764)">
			<stop  offset="0" style="stop-color:#222B90"/>
			<stop  offset="1" style="stop-color:#3559A6"/>
		</linearGradient>
		<rect id="rect8227" x="17" y="-76" class="st6" width="4.3" height="2.4"/>
		
			<linearGradient id="rect8234_1_" gradientUnits="userSpaceOnUse" x1="-518.54" y1="-107.0016" x2="-516.0477" y2="-106.2727" gradientTransform="matrix(1.8318 0 0 -1.8318 961.578 -273.5764)">
			<stop  offset="0" style="stop-color:#CC1953"/>
			<stop  offset="1" style="stop-color:#241284"/>
		</linearGradient>
		<rect id="rect8234" x="11.9" y="-79.5" class="st7" width="4.3" height="2.4"/>
		
			<linearGradient id="rect8241_1_" gradientUnits="userSpaceOnUse" x1="-521.3156" y1="-106.1866" x2="-518.8412" y2="-107.0872" gradientTransform="matrix(1.8318 0 0 -1.8318 961.578 -273.5764)">
			<stop  offset="2.669841e-03" style="stop-color:#FFCC00"/>
			<stop  offset="0.9999" style="stop-color:#CE1938"/>
		</linearGradient>
		<rect id="rect8241" x="6.8" y="-79.5" class="st8" width="4.3" height="2.4"/>
		
			<linearGradient id="rect8248_1_" gradientUnits="userSpaceOnUse" x1="-521.0383" y1="-103.885" x2="-519.118" y2="-105.657" gradientTransform="matrix(1.8318 0 0 -1.8318 961.578 -273.5764)">
			<stop  offset="2.669841e-03" style="stop-color:#FFD100"/>
			<stop  offset="1" style="stop-color:#FD5A22"/>
		</linearGradient>
		<rect id="rect8248" x="6.8" y="-82.9" class="st9" width="4.3" height="2.4"/>
	</g>
	<g>
		<path id="path8175" d="M1.6-69.1c0,1,0.6,1.6,1.6,1.6c0.5,0,0.9-0.1,1.1-0.5v0.5h0.9v-4.9H4.3v2.1c-0.2-0.4-0.6-0.5-1-0.5
			C2.3-70.7,1.6-70.1,1.6-69.1L1.6-69.1z M4.3-69.1c0,0.6-0.4,1-0.9,1c-0.5,0-0.9-0.4-0.9-1c0-0.6,0.4-1,0.9-1
			C3.9-70,4.3-69.7,4.3-69.1z"/>
		<path id="path8177" d="M8-68.7c-0.1,0.4-0.4,0.6-0.8,0.6c-0.5,0-0.9-0.3-0.9-0.8h2.2c0-0.1,0-0.3,0-0.4c0-0.9-0.6-1.4-1.5-1.4
			c-1,0-1.6,0.7-1.6,1.6c0,1.1,0.7,1.7,1.8,1.7c0.8,0,1.3-0.3,1.5-1L8-68.7z M6.3-69.5c0.1-0.4,0.4-0.6,0.8-0.6
			c0.4,0,0.7,0.2,0.7,0.6v0H6.3z"/>
		<path id="path8179" d="M11.3-68.7c-0.1,0.4-0.4,0.6-0.8,0.6c-0.5,0-0.9-0.3-0.9-0.8h2.2c0-0.1,0-0.3,0-0.4c0-0.9-0.6-1.4-1.5-1.4
			c-1,0-1.6,0.7-1.6,1.6c0,1.1,0.7,1.7,1.8,1.7c0.8,0,1.3-0.3,1.5-1L11.3-68.7z M9.6-69.5c0.1-0.4,0.4-0.6,0.8-0.6
			c0.4,0,0.7,0.2,0.7,0.6v0H9.6z"/>
		<path id="path8181" d="M15.1-67.4v-0.8h-1.9L15-70v-0.7h-2.9v0.8h1.8l-1.8,1.8v0.8H15.1z"/>
		<path id="path8183" d="M17.7-68.7c-0.1,0.4-0.4,0.6-0.8,0.6c-0.5,0-0.9-0.3-0.9-0.8h2.2c0-0.1,0-0.3,0-0.4c0-0.9-0.6-1.4-1.5-1.4
			c-1,0-1.6,0.7-1.6,1.6c0,1.1,0.7,1.7,1.8,1.7c0.8,0,1.3-0.3,1.5-1L17.7-68.7z M16-69.5c0.1-0.4,0.4-0.6,0.8-0.6
			c0.4,0,0.7,0.2,0.7,0.6v0H16z"/>
		<path id="path8250" d="M20.4-69.6c0,0,0,0.1,0,0.1h0.9c0,0,0-0.2,0-0.3c0-0.6-0.4-1-1-1c-0.4,0-0.7,0.2-0.8,0.5v-0.5h-0.9v3.3h0.9
			v-2.1c0-0.3,0.2-0.5,0.5-0.5C20.3-70.1,20.4-69.8,20.4-69.6z"/>
	</g>
</g>
</svg>
