<svg id="Capa_1" data-name="Capa 1" xmlns="http://www.w3.org/2000/svg" width="100" height="100" viewBox="0 0 100 100"><defs><style>.cls-1{fill:#00377d;}.cls-2{fill:none;}</style></defs><path class="cls-1" d="M59.76,75.93H40.24a4.76,4.76,0,0,1-4.76-4.76V28.83a4.76,4.76,0,0,1,4.76-4.76H59.76a4.76,4.76,0,0,1,4.76,4.76V71.17a4.76,4.76,0,0,1-4.76,4.76ZM40.24,26.49a2.34,2.34,0,0,0-2.34,2.34h0V71.17a2.34,2.34,0,0,0,2.34,2.34H59.76a2.34,2.34,0,0,0,2.34-2.34V28.83a2.34,2.34,0,0,0-2.34-2.34H40.24Z"/><path class="cls-1" d="M52.16,69.68H47.81a1.21,1.21,0,1,1,0-2.42h4.35a1.21,1.21,0,1,1,0,2.42Z"/><path class="cls-2" d="M0,0H100V100H0Z"/></svg>