<?xml version="1.0" encoding="UTF-8"?>
<svg width="100px" height="100px" viewBox="0 0 100 100" version="1.1" xmlns="http://www.w3.org/2000/svg" xmlns:xlink="http://www.w3.org/1999/xlink">
    <title>Whatsapp</title>
    <defs>
        <polygon id="path-1" points="0 0.806 48.984 0.806 48.984 49.9997 0 49.9997"></polygon>
    </defs>
    <g id="Whatsapp" stroke="none" stroke-width="1" fill="none" fill-rule="evenodd">
        <g id="Group">
            <rect id="Rectangle" x="0" y="0" width="100" height="100"></rect>
            <g id="Group-6" transform="translate(26.000000, 25.000000)">
                <g id="Group-3" transform="translate(0.000000, 0.194300)">
                    <mask id="mask-2" fill="white">
                        <use xlink:href="#path-1"></use>
                    </mask>
                    <g id="Clip-2"></g>
                    <path d="M13.5197,44.2827 C13.7267,44.2827 13.9327,44.3347 14.1187,44.4347 C17.3127,46.1767 20.9307,47.0977 24.5807,47.0987 C36.6587,47.0987 46.4797,37.2797 46.484703,25.2097 C46.4877,19.3617 44.2117,13.8627 40.0787,9.7247 C35.9437,5.5887 30.4427,3.3087 24.5877,3.3057 C12.5207,3.3057 2.6987,13.1237 2.69369926,25.1927 C2.6927,29.0367 3.7037,32.8217 5.6167,36.1357 C5.7827,36.4247 5.8277,36.7687 5.7397,37.0907 L3.0277,46.9917 L13.2027,44.3237 C13.3067,44.2967 13.4137,44.2827 13.5197,44.2827 M1.2497,49.9997 C0.9207,49.9997 0.5997,49.8697 0.3617,49.6287 C0.0467,49.3117 -0.0733,48.8507 0.0437,48.4197 L3.1927,36.9257 C1.2277,33.3437 0.1927,29.2987 0.1937,25.1917 C0.1987,11.7447 11.1427,0.8057 24.5887,0.8057 C31.1117,0.8087 37.2407,3.3487 41.8457,7.9577 C46.4527,12.5677 48.9877,18.6947 48.9847027,25.2107 C48.9797,38.6577 38.0367,49.5987 24.5897,49.5987 C20.6817,49.5977 16.8147,48.6537 13.3647,46.8657 L1.5677,49.9587 C1.4617,49.9867 1.3557,49.9997 1.2497,49.9997" id="Fill-1" fill="#00377D" mask="url(#mask-2)"></path>
                </g>
                <path d="M18.0284,14.3647 C17.5364,13.2707 17.0174,13.2487 16.5494,13.2297 C16.1664,13.2127 15.7274,13.2136889 15.2904,13.2136889 C14.8514,13.2136889 14.1394,13.3787 13.5374,14.0357 C12.9344,14.6937 11.2364,16.2837 11.2364,19.5177 C11.2364,22.7517 13.5914,25.8767 13.9204,26.3157 C14.2494,26.7537 18.4664,33.6017 25.1484,36.2367 C30.7004,38.4257 31.8304,37.9907 33.0354,37.8807 C34.2404,37.7717 36.9244,36.2917 37.4714,34.7567 C38.0194,33.2217 38.0194,31.9067 37.8554,31.6317 C37.6904,31.3577 37.2534,31.1937 36.5954,30.8647 C35.9374,30.5357 32.7074,28.9457 32.1034,28.7267 C31.5014,28.5077 31.0634,28.3977 30.6254,29.0557 C30.1864,29.7137 28.9274,31.1937 28.5444,31.6317 C28.1614,32.0707 27.7774,32.1257 27.1204,31.7967 C26.4634,31.4677 24.3454,30.7737 21.8344,28.5347 C19.8814,26.7927 18.5614,24.6407 18.1774,23.9837 C17.7954,23.3257 18.1364,22.9697 18.4664,22.6417 C18.7614,22.3477 19.1244,21.8747 19.4524,21.4907 C19.7804,21.1077 19.8894,20.8337 20.1094,20.3947 C20.3284,19.9557 20.2184,19.5727 20.0544,19.2437 C19.8894,18.9147 18.6124,15.6647 18.0284,14.3647" id="Fill-4" fill="#00C8FF"></path>
            </g>
        </g>
    </g>
</svg>