<svg width="24px" height="24px" viewBox="0 0 24 24" version="1.1" xmlns="http://www.w3.org/2000/svg"
                    xmlns:xlink="http://www.w3.org/1999/xlink">
                    <!-- Generator: Sketch 57.1 (83088) - https://sketch.com -->
                    <title>icon-instragram</title>
                    <desc>Created with Sketch.</desc>
                    <g id="icon-instragram" stroke="none" stroke-width="1" fill="none" fill-rule="evenodd">
                      <g id="Social-Network/Instagram/Dark-Theme/High-Contrast"
                        transform="translate(-4.000000, -4.000000)">
                        <rect id="Marco" x="0" y="0" width="32" height="32"></rect>
                        <path
                          d="M14.9816711,6.40081198 L17.0183289,6.40081198 C18.7194512,6.40408369 19.0858851,6.41813391 19.9580526,6.45874482 C20.9799014,6.50619256 21.6777276,6.67112994 22.2884367,6.91243559 C22.9195916,7.16187513 23.4549622,7.4955909 23.988777,8.03807672 C24.5223696,8.58056254 24.8506146,9.12508183 25.095965,9.76675602 C25.3333148,10.3876436 25.4955483,11.0971003 25.5422182,12.1359798 C25.5819741,13.0226835 25.5959272,13.3952247 25.5991889,15.124699 L25.5991889,17.1952155 C25.5959272,18.9245544 25.5819741,19.297124 25.5422182,20.1840202 C25.4955483,21.2226738 25.3333148,21.9323564 25.095965,22.553244 C24.8506146,23.1949182 24.5223696,23.7392115 23.988777,24.2819233 C23.4549622,24.8244091 22.9195916,25.1581249 22.2884367,25.4075644 C21.6777276,25.6488701 20.9799014,25.8138074 19.9580526,25.8612552 C18.9342038,25.9087029 18.6072922,25.92 16,25.92 C13.3927078,25.92 13.0657962,25.9087029 12.0419474,25.8612552 C11.0200986,25.8138074 10.3222724,25.6488701 9.7115633,25.4075644 C9.08040836,25.1581249 8.54503785,24.8244091 8.011223,24.2819233 C7.47763039,23.7392115 7.14938537,23.1949182 6.904035,22.553244 C6.66668519,21.9323564 6.5044517,21.2226738 6.45778179,20.1840202 C6.41802594,19.297124 6.40407283,18.9245544 6.40081113,17.1952155 L6.40081113,15.124699 C6.40407283,13.3952247 6.41802594,13.0226835 6.45778179,12.1359798 C6.5044517,11.0971003 6.66668519,10.3876436 6.904035,9.76675602 C7.14938537,9.12508183 7.47763039,8.58056254 8.011223,8.03807672 C8.54503785,7.4955909 9.08040836,7.16187513 9.7115633,6.91243559 C10.3222724,6.67112994 11.0200986,6.50619256 12.0419474,6.45874482 C12.9141149,6.41813391 13.2805488,6.40408369 14.9816711,6.40081198 L17.0183289,6.40081198 Z M16,11.1480953 C13.2773665,11.1480953 11.0703243,13.3919215 11.0703243,16.1599322 C11.0703243,18.927943 13.2773665,21.1717692 16,21.1717692 C18.7226335,21.1717692 20.9296757,18.927943 20.9296757,16.1599322 C20.9296757,13.3919215 18.7226335,11.1480953 16,11.1480953 Z M16,12.9065989 C17.7672338,12.9065989 19.2,14.3632445 19.2,16.1599322 C19.2,17.95662 17.7672338,19.4132656 16,19.4132656 C14.2327662,19.4132656 12.8,17.95662 12.8,16.1599322 C12.8,14.3632445 14.2327662,12.9065989 16,12.9065989 Z M21.1243781,9.77875352 C20.4883339,9.77875352 19.9725203,10.303164 19.9725203,10.9500349 C19.9725203,11.5969057 20.4883339,12.1213162 21.1243781,12.1213162 C21.7606445,12.1213162 22.2764581,11.5969057 22.2764581,10.9500349 C22.2764581,10.303164 21.7606445,9.77875352 21.1243781,9.77875352 Z"
                          id="Instagram" fill="#FFFFFF" fill-rule="evenodd"></path>
                      </g>
                    </g>
                  </svg>