<svg width="65" height="61" viewBox="0 0 65 61" fill="none" xmlns="http://www.w3.org/2000/svg">
<path d="M17.6119 23.1427C16.8436 23.114 16.1178 22.7824 15.5931 22.2203C15.0685 21.6582 14.7876 20.9113 14.8119 20.1427C14.7967 19.4158 15.0617 18.711 15.5522 18.1743C16.0426 17.6376 16.7208 17.3102 17.4461 17.2601C18.1714 17.2099 18.8882 17.4408 19.4478 17.9049C20.0074 18.369 20.367 19.0307 20.4519 19.7527V20.1427C20.4682 20.9158 20.1792 21.6641 19.6476 22.2256C19.1161 22.7871 18.3847 23.1166 17.6119 23.1427ZM43.6119 54.5627C46.2916 54.651 48.9505 54.0645 51.3443 52.8571C53.7381 51.6497 55.7902 49.8601 57.3119 47.6527H57.4719V50.2127C57.3889 51.4114 57.0478 52.5781 56.4719 53.6327C54.9019 56.4427 49.8519 60.0027 44.2819 60.0027C41.8494 60.0375 39.4429 59.4988 37.2573 58.4304C35.0718 57.3619 33.1686 55.7937 31.7019 53.8527C31.0129 52.7147 30.6209 51.4218 30.5619 50.0927V47.5927H30.7119C33.5519 51.4027 37.6419 54.5627 43.6319 54.5627H43.6119ZM55.8519 17.8627C54.1582 17.786 52.4706 18.1133 50.9283 18.8175C49.386 19.5217 48.0333 20.5826 46.9819 21.9127H46.8819V19.8427C46.9423 19.1378 47.1574 18.4549 47.5119 17.8427C48.459 16.654 49.66 15.6922 51.0269 15.0278C52.3939 14.3634 53.8921 14.0131 55.4119 14.0027C56.9582 13.9673 58.4928 14.2785 59.9031 14.9136C61.3134 15.5486 62.5636 16.4914 63.5619 17.6727C64.0197 18.3337 64.283 19.1097 64.3219 19.9127V22.0027H64.2219C63.2388 20.706 61.9666 19.6566 60.5067 18.9379C59.0467 18.2192 57.4392 17.8511 55.8119 17.8627H55.8519ZM4.93194 19.9027V24.3127H11.8519V26.3127C11.8134 26.6549 11.7078 26.9861 11.5412 27.2875C11.3745 27.5888 11.1501 27.8543 10.8808 28.0689C10.6114 28.2834 10.3025 28.4428 9.97149 28.5378C9.64052 28.6328 9.29407 28.6617 8.95194 28.6227H4.95194V36.2427C4.92194 38.7927 6.10194 39.7627 8.10194 39.7627C9.34275 39.8342 10.5822 39.6008 11.7119 39.0827H11.8819V40.7927C11.8819 42.7927 10.4019 44.0627 7.50194 44.0627C2.50194 44.0627 0.0219407 41.3527 0.0219407 36.8227V25.1027C-0.0464886 24.394 0.0456345 23.6789 0.291468 23.0107C0.537301 22.3424 0.930527 21.7381 1.44194 21.2427C1.71988 20.8743 2.06795 20.5644 2.46611 20.331C2.86427 20.0976 3.30466 19.9452 3.76194 19.8827H4.93194V19.9027ZM20.3619 37.7627C20.3619 39.7627 21.2119 40.3427 23.3619 40.3427H24.2819V41.3927C24.2819 43.5227 23.4419 44.3927 21.3419 44.3927C17.5019 44.3927 15.3919 42.2427 15.3919 38.2527V24.9027H16.7519C17.6017 24.81 18.4535 25.058 19.1208 25.5922C19.7881 26.1264 20.2164 26.9033 20.3119 27.7527C20.347 28.0216 20.347 28.2939 20.3119 28.5627V37.7627H20.3619ZM43.5619 39.6927C43.5619 43.2127 41.1619 44.9227 36.2519 44.9227C30.9019 44.9227 25.4819 41.4127 25.4819 34.7027C25.4819 28.4027 30.3319 24.0027 37.2619 24.0027C41.3419 24.0027 43.2619 26.1927 43.2619 28.2227V29.9327H42.5919L42.5019 29.8527C40.8141 28.7434 38.8197 28.1941 36.8019 28.2827C35.2466 28.1784 33.7134 28.696 32.5395 29.7218C31.3657 30.7475 30.6471 32.1974 30.5419 33.7527C30.5419 33.8927 30.5419 34.0327 30.5419 34.1727C30.5419 39.5827 33.9419 40.6627 36.7819 40.6627C38.7819 40.6627 38.9119 39.9627 38.9119 39.1927V37.6427C38.9001 36.7092 38.803 35.7786 38.6219 34.8627L38.5119 34.4027H41.1019C41.712 34.398 42.3025 34.6173 42.7615 35.0192C43.2205 35.421 43.516 35.9774 43.5919 36.5827L43.5619 39.6927Z" fill="white"/>
<path d="M55.452 40.0027C52.102 40.0027 50.702 37.7427 50.702 33.9027C50.702 30.7127 52.142 28.4227 55.012 28.4227C58.282 28.4227 59.762 30.7127 59.762 34.5827C59.762 37.7427 58.402 39.9927 55.452 39.9927V40.0027ZM55.452 24.0927C48.982 24.0927 45.552 28.7527 45.552 34.5627C45.552 39.6727 48.982 44.3127 55.052 44.3127C61.502 44.3127 64.972 39.6727 64.972 33.8727C64.932 28.7827 61.452 24.1227 55.452 24.1227V24.0927Z" fill="white"/>
</svg>
