<?xml version="1.0" encoding="UTF-8"?>
<svg width="23px" height="20px" viewBox="0 0 23 20" version="1.1" xmlns="http://www.w3.org/2000/svg" xmlns:xlink="http://www.w3.org/1999/xlink">
    <!-- Generator: Sketch 62 (91390) - https://sketch.com -->
    <title>Slice 1</title>
    <desc>Created with Sketch.</desc>
    <g id="Page-1" stroke="none" stroke-width="1" fill="none" fill-rule="evenodd">
        <g id="ic-prime-video-list">
            <g id="Group" transform="translate(0.112398, 0.000000)" fill="#00377D" fill-rule="nonzero">
                <path d="M14.5051783,12.1537982 C14.8719781,12.1537982 15.2296527,12.2182119 15.5794544,12.3472181 C15.6470887,12.3697628 15.6948621,12.3992857 15.7231326,12.4356079 C15.751403,12.4721089 15.7655382,12.5270394 15.7655382,12.5995047 L15.7655382,12.5995047 L15.7655382,12.8267417 C15.7655382,12.9276564 15.7288582,12.9781137 15.6556772,12.9781137 C15.6159554,12.9781137 15.551005,12.9643363 15.4610049,12.9362448 C15.1621973,12.8466025 14.857485,12.8016919 14.547584,12.8016919 C14.0059728,12.8016919 13.7354356,12.9840183 13.7354356,13.348492 C13.7354356,13.4944962 13.7808829,13.6091883 13.8708831,13.6934627 C13.9608832,13.7777372 14.1385575,13.8700634 14.403548,13.971157 L14.403548,13.971157 L15.0634297,14.2236226 C15.3960545,14.3526288 15.6356374,14.5054322 15.7825362,14.6822118 C15.9290772,14.8589914 16.0022583,15.0874809 16.0022583,15.368038 C16.0022583,15.7665078 15.8528544,16.083387 15.5538679,16.3188546 C15.2548813,16.5545011 14.857485,16.6724138 14.3611423,16.6724138 C13.8878811,16.6724138 13.4620355,16.593686 13.0841423,16.4365884 C13.016508,16.4088547 12.9701659,16.3773636 12.9445794,16.3440832 C12.9197086,16.310445 12.906468,16.2571249 12.906468,16.1841228 L12.906468,16.1841228 L12.906468,15.9486552 C12.906468,15.8475616 12.9404641,15.7971042 13.0082773,15.7971042 C13.0476412,15.7971042 13.1179594,15.8141023 13.2194109,15.8475616 C13.5917574,15.9654743 13.9778813,16.0241623 14.3783193,16.0241623 C14.6545821,16.0241623 14.8646421,15.971021 15.0083203,15.8643807 C15.1523563,15.7579193 15.2241059,15.6036845 15.2241059,15.4014973 C15.2241059,15.2669444 15.1800899,15.1576201 15.0929526,15.0735246 C15.0054575,14.9890712 14.8463916,14.9053335 14.6150394,14.821059 L14.6150394,14.821059 L13.8964696,14.5517742 C13.270405,14.3216745 12.9572832,13.9291092 12.9572832,13.3737207 C12.9572832,13.0092469 13.09953,12.7145546 13.3842024,12.4901805 C13.6694116,12.2659853 14.0426527,12.1537982 14.5051783,12.1537982 Z M17.6412092,12.3344069 L17.6412092,16.6722886 L16.730651,16.6722886 L16.730651,12.3344069 L17.6412092,12.3344069 Z M9.20352575,12.3344069 C9.31624958,12.3344069 9.37279046,12.3900531 9.37279046,12.5006298 L9.37279046,12.5006298 L9.37279046,15.1347891 C9.37279046,15.4341335 9.43183626,15.6542134 9.54992792,15.7953866 C9.6683774,15.9369176 9.85696617,16.0075937 10.116231,16.0075937 C10.5218579,16.0075937 10.9301687,15.8742932 11.3415212,15.6085871 L11.3415212,15.6085871 L11.3415212,12.5006298 C11.3415212,12.3900531 11.3977042,12.3344069 11.510428,12.3344069 L11.510428,12.3344069 L12.0090968,12.3344069 C12.1218207,12.3344069 12.1780037,12.3900531 12.1780037,12.5006298 L12.1780037,12.5006298 L12.1780037,16.3810137 C12.1780037,16.4921272 12.1218207,16.5479524 12.0090968,16.5479524 L12.0090968,16.5479524 L11.6458756,16.5479524 C11.5893347,16.5479524 11.5454977,16.5363221 11.5149012,16.5144931 C11.483768,16.4921272 11.4624757,16.4506162 11.4513822,16.3897811 L11.4513822,16.3897811 L11.3921575,16.0988463 C10.8684389,16.4810338 10.3302273,16.6723064 9.77805946,16.6723064 C9.37815824,16.6723064 9.07111999,16.5613719 8.85694468,16.3400395 C8.64294834,16.1183493 8.53595016,15.8052275 8.53595016,15.4008531 L8.53595016,15.4008531 L8.53595016,12.5006298 C8.53595016,12.3900531 8.59231206,12.3344069 8.70503589,12.3344069 L8.70503589,12.3344069 L9.20352575,12.3344069 Z M20.6993711,12.1537804 C21.0123139,12.1537804 21.3195311,12.2079952 21.6210226,12.315888 C21.6848995,12.3386117 21.7294522,12.367061 21.7555755,12.401415 C21.7816989,12.435411 21.7949394,12.4921308 21.7949394,12.572111 L21.7949394,12.572111 L21.7949394,12.8027476 C21.7949394,12.916545 21.7571859,12.9736226 21.6820367,12.9736226 C21.6530505,12.9736226 21.6063507,12.9650341 21.5428317,12.9478572 C21.3050381,12.8795072 21.0643816,12.8453322 20.8210413,12.8453322 C20.3340027,12.8453322 19.9834853,12.9664655 19.7689521,13.2085534 C19.554419,13.4506413 19.4472419,13.8362284 19.4472419,14.3660304 L19.4472419,14.3660304 L19.4472419,14.476965 C19.4472419,14.9951368 19.5560293,15.3751771 19.7736042,15.6170861 C19.9906423,15.8593528 20.3340027,15.9804862 20.8035064,15.9804862 C21.0473836,15.9804862 21.3080798,15.9407645 21.5863109,15.8607843 C21.6500088,15.8436073 21.693488,15.8351977 21.7167485,15.8351977 C21.7920766,15.8351977 21.8296512,15.8919175 21.8296512,16.0058939 L21.8296512,16.0058939 L21.8296512,16.2361725 C21.8296512,16.3106061 21.818021,16.3648209 21.7949394,16.3988169 C21.7720368,16.4329919 21.7253369,16.464662 21.6559133,16.4927535 C21.3714199,16.6122765 21.0413,16.6723959 20.6646593,16.6723959 C19.9806224,16.6723959 19.4574407,16.4800497 19.095293,16.0955362 C18.7327874,15.7113804 18.5518925,15.1545605 18.5518925,14.4257919 C18.5518925,13.7025701 18.7388709,13.1432451 19.11247,12.7472803 C19.4866057,12.3514944 20.0153342,12.1537804 20.6993711,12.1537804 Z M6.22323276,12.1537446 C6.615798,12.1537446 6.91711059,12.2618163 7.12770736,12.4777809 C7.33794625,12.6939244 7.4433341,13.0011415 7.4433341,13.4001481 L7.4433341,13.4001481 L7.4433341,16.3248844 C7.4433341,16.4359979 7.38625646,16.4914652 7.27281692,16.4914652 L7.27281692,16.4914652 L6.76931712,16.4914652 C6.65551971,16.4914652 6.59862101,16.4359979 6.59862101,16.3248844 L6.59862101,16.3248844 L6.59862101,13.6327529 C6.59862101,13.3559532 6.54440622,13.1509032 6.43633449,13.0177817 C6.32826274,12.8850181 6.15774556,12.8184574 5.92460403,12.8184574 C5.50949403,12.8184574 5.09116335,12.9429904 4.67032769,13.1925932 C4.67623228,13.2312413 4.67909512,13.2727523 4.67909512,13.3171262 L4.67909512,13.3171262 L4.67909512,16.3248844 C4.67909512,16.4359979 4.62183855,16.4914652 4.50822007,16.4914652 L4.50822007,16.4914652 L4.00489921,16.4914652 C3.89092287,16.4914652 3.8342031,16.4359979 3.8342031,16.3248844 L3.8342031,16.3248844 L3.8342031,13.6327529 C3.8342031,13.3559532 3.78016724,13.1509032 3.67209548,13.0177817 C3.56366589,12.8850181 3.39332765,12.8184574 3.16018612,12.8184574 C2.72772023,12.8184574 2.31261022,12.9403065 1.91431934,13.1841836 L1.91431934,13.1841836 L1.91431934,16.3248844 C1.91431934,16.4359979 1.85742063,16.4914652 1.74380216,16.4914652 L1.74380216,16.4914652 L1.24030236,16.4914652 C1.12668389,16.4914652 1.06978518,16.4359979 1.06978518,16.3248844 L1.06978518,16.3248844 L1.06978518,12.4445005 C1.06978518,12.3337449 1.12668389,12.2782776 1.24030236,12.2782776 L1.24030236,12.2782776 L1.61586954,12.2782776 C1.67241042,12.2782776 1.71660531,12.289371 1.74791747,12.311558 C1.77922967,12.3337449 1.80070086,12.3750769 1.81215216,12.4362699 L1.81215216,12.4362699 L1.86296738,12.7019761 C2.40923064,12.3364288 2.9410009,12.1537446 3.45863591,12.1537446 C3.98790116,12.1537446 4.34593356,12.350564 4.53380662,12.743666 C5.096889,12.350564 5.66015034,12.1537446 6.22323276,12.1537446 Z M17.1853933,10.6038634 C17.3553737,10.6038634 17.489032,10.6534261 17.5861892,10.7529094 C17.6831675,10.8522137 17.7314777,10.9835459 17.7314777,11.1463692 C17.7314777,11.3086557 17.6831675,11.439809 17.5861892,11.5391134 C17.489032,11.6387756 17.3553737,11.6883383 17.1853933,11.6883383 C17.0146972,11.6883383 16.8813968,11.6387756 16.7844185,11.5391134 C16.6874403,11.439809 16.6387722,11.3086557 16.6387722,11.1463692 C16.6387722,10.9835459 16.6874403,10.8522137 16.7844185,10.7529094 C16.8813968,10.6534261 17.0146972,10.6038634 17.1853933,10.6038634 Z M3.85002022,8.15401655 C3.73729639,8.05632256 3.83785322,7.92302213 3.97312183,7.99852922 C5.51994337,8.863461 7.43249115,9.38431672 9.40802111,9.38431672 C10.7408463,9.38431672 12.2058983,9.11861053 13.5535744,8.56912656 C13.757193,8.48628348 13.9273524,8.69795381 13.7283858,8.839127 C12.5259982,9.69189174 10.783073,10.1452921 9.28169886,10.1452921 C7.17805732,10.1452921 5.28358117,9.39791513 3.85002022,8.15401655 Z M12.7923486,8.12225706 C13.4620713,7.64828014 14.5588921,7.78515908 14.6866458,7.94404603 C14.8151152,8.10400654 14.6530076,9.21263651 14.0255116,9.74154392 C13.9287122,9.8229556 13.8369228,9.7796553 13.8800441,9.67212035 C14.0212173,9.31677189 14.3372019,8.52108471 14.1872613,8.32802277 C14.0376786,8.13496086 13.1985122,8.2364123 12.8215136,8.2818597 C12.7071794,8.29563704 12.6892868,8.19508024 12.7923486,8.12225706 Z M20.8795861,4 C21.177678,4 21.4695075,4.10467215 21.6555913,4.3909549 C21.829687,4.65612429 21.829687,5.10272542 21.829687,5.42389888 L21.829687,5.42389888 L21.829687,7.51054237 C21.8221721,7.56940925 21.7679573,7.61485665 21.7021123,7.61485665 L21.7021123,7.61485665 L21.0354313,7.61485665 C20.9738804,7.61109917 20.9241388,7.56708321 20.9169818,7.51054237 L20.9169818,7.51054237 L20.9171436,5.66742954 C20.9195826,5.30711506 20.9427954,4.81662157 20.501156,4.81662157 C20.3395852,4.81662157 20.1905392,4.92129372 20.1162847,5.08179099 C20.0230638,5.2841571 20.0107179,5.48652323 20.0107179,5.71000274 L20.0107179,5.71000274 L20.0107179,7.49569143 C20.0094654,7.56171539 19.9520299,7.61485665 19.880996,7.61485665 L19.880996,7.61485665 L19.2184303,7.61485665 C19.1518696,7.61074134 19.0990862,7.55938935 19.0990862,7.49587036 L19.0990862,7.49587036 L19.0980127,4.17838993 C19.1035594,4.11773378 19.1586688,4.07013928 19.2257664,4.07013928 L19.2257664,4.07013928 L19.8427057,4.06996034 C19.9006779,4.07300212 19.9488093,4.11147137 19.9607973,4.16300225 L19.9607973,4.16300225 L19.9607973,4.6700806 L19.9735011,4.6700806 C20.1597639,4.21632241 20.4202812,4 20.8795861,4 Z M17.0829936,4.00010735 C18.0361362,4.00010735 18.5518031,4.80796153 18.5518031,5.83482199 C18.5518031,6.82732856 17.9822793,7.61478507 17.0829936,7.61478507 C16.1477436,7.61478507 15.6381603,6.80693089 15.6381603,5.80064699 C15.6381603,4.78738493 16.1536482,4.00010735 17.0829936,4.00010735 Z M7.79993506,4.00001789 C8.07244048,4.00001789 8.36927989,4.11166815 8.55089054,4.36323914 C8.75701412,4.6421859 8.71442956,5.04673924 8.71442956,5.40280344 L8.71442956,5.40280344 L8.71407169,7.49553042 C8.71407169,7.56173331 8.65806766,7.61487454 8.58882298,7.61487454 L8.58882298,7.61487454 L7.94075038,7.61487454 C7.87562105,7.61075923 7.82444804,7.55940724 7.82444804,7.49570935 L7.82444804,7.49570935 L7.82409017,5.73775427 C7.82409017,5.59819142 7.8364361,5.24946321 7.80601858,5.11687852 C7.75752944,4.89339902 7.61224094,4.83041683 7.42454677,4.83041683 C7.26709127,4.83041683 7.10355225,4.93526788 7.03681259,5.10274331 C6.97025182,5.27021871 6.9761564,5.54934441 6.9761564,5.73775427 L6.9761564,5.73775427 L6.9761564,7.49553042 C6.9761564,7.56173331 6.92033127,7.61487454 6.85126557,7.61487454 L6.85126557,7.61487454 L6.20301403,7.61487454 C6.1378847,7.61075923 6.08653275,7.55940724 6.08653275,7.49570935 L6.08653275,7.49570935 L6.08599595,5.73775427 C6.08599595,5.3677338 6.1464732,4.82361761 5.68627366,4.82361761 C5.27363419,4.82361761 5.24030383,5.23849126 5.23810589,5.60003953 L5.23788329,7.49553042 C5.23788329,7.56173331 5.18170028,7.61487454 5.11263458,7.61487454 L5.11263458,7.61487454 L4.46384624,7.61487454 C4.40211652,7.61093816 4.35273274,7.56477506 4.34772279,7.50572925 L4.34772279,7.50572925 L4.3482596,4.18950128 C4.3482596,4.12311949 4.40426367,4.06997823 4.47332937,4.06997823 L4.47332937,4.06997823 L5.07774384,4.06997823 C5.14108393,4.07319894 5.19172018,4.12079345 5.19565656,4.18127066 L5.19565656,4.18127066 L5.19565656,4.61409442 L5.2078236,4.61409442 C5.3652791,4.19576374 5.66193962,4.00001789 6.06166191,4.00001789 C6.46746772,4.00001789 6.72208048,4.19576374 6.90351215,4.61409442 C7.06114663,4.19576374 7.41828436,4.00001789 7.79993506,4.00001789 Z M15.0876743,4.18080547 C15.1553086,4.18080547 15.2098812,4.22965245 15.2098812,4.29907603 L15.2098812,4.29907603 L15.2098812,4.70148223 C15.2093445,4.76911653 15.151909,4.85696956 15.0499208,4.99689024 L15.0499208,4.99689024 L13.9507739,6.55176351 C14.3589057,6.54228038 14.790477,6.60293653 15.1610342,6.80959692 C15.244593,6.85593892 15.2673167,6.92500466 15.2737581,6.99246003 L15.2737581,6.99246003 L15.2737581,7.49309702 C15.2737581,7.56198379 15.1975353,7.64196403 15.1173761,7.60027411 C14.4642936,7.2613869 13.5977515,7.22434905 12.8754242,7.60456835 C12.8017064,7.64339547 12.7244101,7.5646677 12.7244101,7.495602 L12.7244101,7.495602 L12.7246233,6.98886787 C12.7259589,6.9113531 12.7355483,6.79919681 12.8034957,6.69758878 L12.8034957,6.69758878 L14.0770961,4.88702925 L12.9681083,4.88702925 C12.900474,4.88702925 12.8459013,4.83907687 12.8453645,4.76875869 L12.8453645,4.76875869 L12.8453645,4.29961279 C12.8459013,4.22822105 12.9002951,4.18080547 12.9654244,4.18098437 L12.9654244,4.18098437 L15.0876743,4.18080547 Z M2.42977143,4.01588871 C2.74181967,4.01588871 3.14995152,4.09712142 3.39579685,4.32793691 C3.68932087,4.59603228 3.68011824,4.94828885 3.67801991,5.33398803 L3.67778536,6.38273144 C3.67778536,6.62756283 3.76451514,6.75783141 3.8612474,6.88598767 L3.91987321,6.96352757 L3.91987321,6.96352757 C3.96084743,7.02078414 3.97015163,7.08841844 3.91790504,7.13010837 C3.80564129,7.22212783 3.61844743,7.38026982 3.48657789,7.49377301 L3.42585654,7.54629191 C3.38219841,7.58207728 3.32082656,7.58458226 3.27287418,7.55953251 C3.05977245,7.38651036 3.02148213,7.30653013 2.90535869,7.14191753 C2.55305197,7.49207711 2.30380702,7.59746496 1.84790173,7.59746496 C1.30772195,7.59746496 0.887602,7.27181832 0.887602,6.62052504 C0.887602,6.11201529 1.16959051,5.76597099 1.57181781,5.59634846 C1.88486799,5.46204607 2.3099496,5.42658637 2.66301514,5.39122813 L2.77778394,5.37931034 L2.77778394,5.2978987 C2.77778394,5.14849485 2.78977201,4.97225203 2.69977187,4.84342481 C2.62175984,4.72801707 2.47164029,4.68042256 2.3397713,4.68042256 C2.09517847,4.68042256 1.87760359,4.80298736 1.82410449,5.05670544 C1.81474918,5.10516903 1.78238901,5.15323824 1.73682683,5.16789878 L1.712991,5.17229212 L1.09122061,5.10626816 C1.03861615,5.09481686 0.980286043,5.0536637 0.995136953,4.9752938 C1.13809941,4.2382946 1.81927344,4.01588871 2.42977143,4.01588871 Z M10.8383435,4.01572766 C11.1505706,4.01572766 11.5585235,4.0971393 11.8047267,4.32795479 C12.0982508,4.59588177 12.0888896,4.94828693 12.0867726,5.33385501 L12.0865363,5.40652511 L12.0865363,6.38257039 C12.0865363,6.676547 12.2114272,6.80537425 12.3286242,6.96354545 C12.3697773,7.02062309 12.3790815,7.08843633 12.326656,7.13012625 C12.2142389,7.22214572 12.0270231,7.38028774 11.8953758,7.49379089 L11.8347864,7.54630983 C11.7907704,7.58209517 11.7295775,7.58460014 11.6814462,7.5595504 C11.4685234,7.38652825 11.430412,7.30654801 11.3141096,7.14193542 C10.9618029,7.49209503 10.712558,7.59748284 10.2562948,7.59748284 C9.71647291,7.59748284 9.29617402,7.27183621 9.29617402,6.62054293 C9.29617402,6.11203318 9.57834146,5.76598888 9.98038983,5.59636634 C10.2936011,5.46206396 10.7185538,5.42660426 11.0718529,5.39124602 L11.1867138,5.37932823 L11.1867138,5.29791659 C11.1867138,5.14851277 11.198523,4.97226995 11.1085228,4.8434427 C11.0301529,4.72803495 10.8803912,4.68044044 10.7483433,4.68044044 C10.5037505,4.68044044 10.2863545,4.80300524 10.2328554,5.05672337 C10.2233468,5.10518695 10.1909647,5.15325613 10.1453994,5.16791667 L10.121563,5.17231001 L9.49979263,5.10628605 C9.4473671,5.09483475 9.389037,5.05368159 9.40388791,4.97531169 C9.5470293,4.23831249 10.2280244,4.01572766 10.8383435,4.01572766 Z M2.77778394,5.88119981 C2.31382692,5.88119981 1.82374663,5.97817809 1.82374663,6.51209546 C1.82374663,6.78334836 1.96796156,6.96656934 2.21362796,6.96656934 C2.39380719,6.96656934 2.55591478,6.85796082 2.65772412,6.68171799 C2.76969246,6.48879519 2.77746803,6.30661686 2.77781363,6.09685485 L2.77778394,5.88119981 Z M11.1867138,5.88121769 C10.7223989,5.88121769 10.2324976,5.97819598 10.2324976,6.51211334 C10.2324976,6.78336625 10.3763547,6.96658723 10.6223789,6.96658723 C10.8025581,6.96658723 10.9644868,6.85797871 11.066475,6.68173588 C11.1784434,6.48865406 11.1863604,6.30659941 11.1867374,6.09686687 L11.1867138,5.88121769 Z M17.0888982,4.66428337 C16.6152791,4.66428337 16.5853968,5.30072573 16.5853968,5.69794305 L16.5854816,5.78607426 C16.5870054,6.20784507 16.6142179,6.94363094 17.0829936,6.94363094 C17.5807677,6.94363094 17.6043861,6.25905726 17.6043861,5.84162121 C17.6043861,5.56804227 17.5925769,5.23935385 17.5086602,4.97919441 C17.4367317,4.75320993 17.2926957,4.66428337 17.0888982,4.66428337 Z" id="Combined-Shape"></path>
            </g>
            <g id="Clipped" transform="translate(0.000000, 6.081068)">
                <g id="Shape-Clipped">
                    <g></g>
                </g>
            </g>
        </g>
        <g id="Light-Mode@1x" transform="translate(1.000000, 4.000000)"></g>
    </g>
</svg>