<?xml version="1.0" encoding="UTF-8"?>
<svg width="100px" height="100px" viewBox="0 0 100 100" version="1.1" xmlns="http://www.w3.org/2000/svg" xmlns:xlink="http://www.w3.org/1999/xlink">
    <title>Telefonia Fija Pyme 100x100</title>
    <g id="Telefonia-Fija-Pyme-100x100" stroke="none" stroke-width="1" fill="none" fill-rule="evenodd">
        <g id="B2C/mobile,-telefonia,-calls,-fixed-line,-telefonia-fija">
            <path d="M36.69,27.71 C37.6229453,27.734439 38.5064549,28.1347229 39.14,28.82 C40.14,29.69 40.97,30.65 42.01,31.69 L44.8,34.48 C45.5451465,35.1070167 45.9752941,36.0311452 45.9752941,37.005 C45.9752941,37.9788548 45.5451465,38.9029833 44.8,39.53 C43.67,40.67 42.53,41.89 41.31,42.93 C40.97,43.28 40.97,43.45 41.14,43.8 C41.9157501,45.6068279 42.924289,47.304535 44.14,48.85 C46.6118313,51.9315601 49.5507261,54.6072702 52.85,56.78 C53.55,57.22 54.42,57.57 55.12,58 C55.2245976,58.0565252 55.3411351,58.0873734 55.46,58.09 C55.6869861,58.0752328 55.9021551,57.9835214 56.07,57.83 L59.56,54.34 C60.2051598,53.6281612 61.1099888,53.2063883 62.07,53.17 C63.014295,53.2004447 63.9027462,53.6247254 64.52,54.34 L70.1,59.92 C70.8009335,60.5856877 71.1894332,61.515574 71.170408,62.4820553 C71.1513828,63.4485365 70.7265885,64.3624131 70,65 C69,66.13 67.82,67.09 66.86,68.22 C65.5711799,69.6040297 63.750562,70.3686892 61.86,70.32 L61.48,70.32 C58.5121907,70.0341356 55.6302261,69.1641086 53,67.76 C47.0367166,64.8942501 41.7708236,60.7613944 37.57,55.65 C34.3815265,51.9203756 31.8489241,47.6768295 30.08,43.1 C29.14882,40.8890637 28.7316723,38.4955934 28.86,36.1 C28.9280599,34.6258067 29.5878284,33.2413744 30.69,32.26 L34.17,28.78 C34.835906,28.0995641 35.7384751,27.7020039 36.69,27.67 L36.69,27.71 Z M36.69,25.25 C35.1186369,25.2698319 33.6177741,25.9053646 32.51,27.02 L32.51,27.02 L32.51,27.02 L29,30.56 C27.471818,31.9715105 26.5535692,33.9227893 26.44,36 C26.2900755,38.7366566 26.7618759,41.4717318 27.82,44 C29.6811543,48.8079628 32.3457442,53.2647261 35.7,57.18 C40.1169726,62.5678277 45.6601139,66.923153 51.94,69.94 C54.849295,71.4637235 58.0294339,72.4014567 61.3,72.7 L61.82,72.7 C64.3827449,72.7589068 66.8490054,71.7222043 68.6,69.85 L68.6,69.85 L68.6,69.85 C69.07,69.29 69.6,68.75 70.2,68.18 C70.8,67.61 71.15,67.25 71.63,66.74 C72.7962534,65.6687897 73.4756577,64.1686039 73.5115096,62.5854573 C73.5473616,61.0023107 72.9365654,59.472907 71.82,58.35 L71.82,58.35 L71.82,58.35 L68.14,54.66 L66.27,52.79 C65.1942657,51.6071128 63.6786047,50.9198202 62.08,50.89 C60.477282,50.9215681 58.955362,51.5995798 57.86,52.77 L55.2,55.43 L55.08,55.37 C54.73,55.19 54.39,55.03 54.14,54.87 C51.067287,52.8490997 48.3335178,50.3549573 46.04,47.48 C45.1941097,46.4052395 44.4508567,45.2535322 43.82,44.04 C44.45,43.44 45.05,42.83 45.64,42.23 L46.47,41.38 C47.6641649,40.2958366 48.3451105,38.7578981 48.3451105,37.145 C48.3451105,35.5321019 47.6641649,33.9941634 46.47,32.91 L45.29,31.73 L43.72,30 L42.72,29 C42.08,28.34 41.47,27.72 40.8,27.1 C39.7219248,25.9839712 38.2416106,25.3464636 36.69,25.33 L36.69,25.25 Z" id="Shape" fill="#00377B" fill-rule="nonzero"></path>
            <g id="Marco">
                <rect id="Rectangle" x="0" y="0" width="100" height="100"></rect>
            </g>
        </g>
    </g>
</svg>