<svg width="24px" height="24px" viewBox="0 0 24 24" version="1.1" xmlns="http://www.w3.org/2000/svg"
                    xmlns:xlink="http://www.w3.org/1999/xlink">
                    <!-- Generator: Sketch 57.1 (83088) - https://sketch.com -->
                    <title>icon-twitter</title>
                    <desc>Created with Sketch.</desc>
                    <g id="icon-twitter" stroke="none" stroke-width="1" fill="none" fill-rule="evenodd">
                      <g id="Social-Network/Twitter/Dark-Theme/High-Contrast"
                        transform="translate(-4.000000, -4.000000)">
                        <rect id="Marco" x="0" y="0" width="32" height="32"></rect>
                        <path
                          d="M20.8215367,14.179853 C20.8260481,14.2791044 20.8281964,14.3787855 20.8281964,14.4791111 C20.8281964,17.5370011 18.5002987,21.0636501 14.2434427,21.0636501 C12.936417,21.0636501 11.7202645,20.6803934 10.6959552,20.0240878 C10.8770568,20.0455708 11.061381,20.0563123 11.2480682,20.0563123 C12.3323151,20.0563123 13.3302004,19.6861602 14.1224934,19.0655164 C13.1093552,19.0466114 12.2549763,18.3776308 11.9604444,17.4581585 C12.1013729,17.4850123 12.2463831,17.4998355 12.3954751,17.4998355 C12.606653,17.4998355 12.8111712,17.4712631 13.0055923,17.418415 C11.9466953,17.2061629 11.1488168,16.2705784 11.1488168,15.1495955 C11.1488168,15.1394985 11.1488168,15.1298312 11.1494612,15.1201638 C11.4611796,15.2937464 11.8180122,15.397939 12.1976167,15.4097546 C11.5763284,14.9949179 11.1677218,14.2861938 11.1677218,13.4831593 C11.1677218,13.0595146 11.2822262,12.6620792 11.4811587,12.3200698 C12.6223356,13.7203316 14.3278708,14.6413078 16.2512437,14.7379813 C16.2117149,14.5686952 16.1913061,14.3918902 16.1913061,14.2103588 C16.1913061,12.9327649 17.2276459,11.8962103 18.5058843,11.8962103 C19.1714276,11.8962103 19.7727367,12.1776375 20.1950925,12.6274915 C20.7222853,12.5237286 21.2174684,12.3308113 21.6647444,12.0657111 C21.4915914,12.6060085 21.1248766,13.0595146 20.6470948,13.345883 C21.1149945,13.2898124 21.5614112,13.1656406 21.976033,12.9815313 C21.6662482,13.4455641 21.2733242,13.8530966 20.8215367,14.179853 M16.0001074,6.4 C10.6981035,6.4 6.4,10.6978886 6.4,15.9998926 C6.4,21.3018965 10.6981035,25.6 16.0001074,25.6 C21.3018965,25.6 25.6,21.3018965 25.6,15.9998926 C25.6,10.6978886 21.3018965,6.4 16.0001074,6.4"
                          id="Twitter" fill="#FFFFFF" fill-rule="evenodd"></path>
                      </g>
                    </g>
                  </svg>