<svg id="Capa_1" data-name="Capa 1" xmlns="http://www.w3.org/2000/svg" width="100" height="100" viewBox="0 0 100 100"><defs><style>.cls-1{fill:#00377d;}.cls-2{fill:#787878;}.cls-3{fill:none;}</style></defs><path class="cls-1" d="M65.52,74.09H34.64A3.06,3.06,0,0,1,31.58,71h0V40.93a1.21,1.21,0,0,1,2.42,0V71a.65.65,0,0,0,.64.65H65.52a.65.65,0,0,0,.65-.65h0V29.11a.65.65,0,0,0-.65-.65H45.68a1.21,1.21,0,0,1,0-2.42H65.52a3.09,3.09,0,0,1,3.07,3.07V71a3.08,3.08,0,0,1-3.07,3.09Z"/><path class="cls-2" d="M61,67H39.19A1.21,1.21,0,0,1,38,65.8V47.61a1.21,1.21,0,0,1,1.21-1.21h15.4a1.21,1.21,0,0,1,0,2.42H40.4V64.59H59.76V54.87a1.21,1.21,0,0,1,2.42,0V65.8A1.22,1.22,0,0,1,61,67Z"/><path class="cls-1" d="M49.57,62.36a1.21,1.21,0,0,1-.83-.33l-5.55-5.22a1.21,1.21,0,1,1,1.51-1.89.86.86,0,0,1,.14.13l4.62,4.34L60.05,46.8a1.21,1.21,0,1,1,1.86,1.55h0L50.49,61.92a1.18,1.18,0,0,1-.85.43Z"/><path class="cls-2" d="M41.61,36.91H32.22a.81.81,0,0,1-.81-.79.83.83,0,0,1,.24-.58L41,26.15a.8.8,0,0,1,1.13,0,.78.78,0,0,1,.24.58v9.39A.79.79,0,0,1,41.61,36.91Z"/><path class="cls-3" d="M0,0H100V100H0Z"/></svg>