<svg width="18" height="18" viewBox="0 0 18 18" fill="none" xmlns="http://www.w3.org/2000/svg">
<circle cx="9" cy="9" r="8.5" stroke="white"/>
<path d="M10.2375 4.04673C10.2375 3.36387 9.68377 2.81079 9.00005 2.81079C8.31633 2.81079 7.76255 3.36387 7.76255 4.04673C7.76255 4.72958 8.31633 5.28266 9.00005 5.28266C9.68377 5.28266 10.2375 4.72958 10.2375 4.04673Z" fill="white"/>
<path d="M10.9652 7.0037L13.4526 6.50686C13.7873 6.4395 14.0051 6.11445 13.9383 5.77889C13.8715 5.44457 13.5479 5.22519 13.21 5.2944L10.722 5.79125C10.4325 5.84934 9.91704 5.90063 9.6188 5.90063H8.3813C8.08306 5.90063 7.56765 5.84934 7.27745 5.79125L4.79008 5.2944C4.44977 5.22457 4.12802 5.44457 4.06181 5.77889C3.99437 6.11383 4.21217 6.4395 4.54691 6.50624L7.03367 7.00308C7.23538 7.04387 7.5002 7.07847 7.76255 7.10258V9.91742C7.76255 10.1961 7.69016 10.6763 7.60786 10.9445L6.55228 14.3705C6.45204 14.6962 6.63519 15.0422 6.96189 15.143C7.02253 15.1615 7.08378 15.1701 7.1438 15.1701C7.40863 15.1701 7.65303 14.9996 7.73533 14.7339L8.79091 11.3072C8.90847 10.9247 9.00005 10.3148 9.00005 9.91742C9.00005 10.3148 9.09163 10.9247 9.20857 11.3085L10.2642 14.7345C10.3464 15.0002 10.5909 15.1708 10.8557 15.1708C10.9157 15.1708 10.977 15.1621 11.0376 15.1436C11.3643 15.0428 11.5474 14.6968 11.4472 14.3711L10.3916 10.9457C10.3093 10.6775 10.2369 10.1967 10.2369 9.91804V7.10319C10.4993 7.07909 10.7641 7.04387 10.9652 7.0037Z" fill="white"/>
</svg>
