<svg id="Capa_1" data-name="Capa 1" xmlns="http://www.w3.org/2000/svg" width="100" height="100" viewBox="0 0 100 100"><defs><style>.cls-1{fill:#2896ff;}.cls-2{fill:#00377d;}.cls-3{fill:none;}</style></defs><path class="cls-1" d="M60.87,51.7,56.45,58V43.07a1.21,1.21,0,0,0-2.42,0V58L49.6,51.7a1.22,1.22,0,0,0-2,1.4l6.62,9.35.1.11.06.06a1.19,1.19,0,0,0,.33.22h.08a1,1,0,0,0,.84,0h.08a1.19,1.19,0,0,0,.33-.22v-.06l.11-.11,6.62-9.35a1.22,1.22,0,1,0-2-1.4h.1Zm15.39-7.36L69.64,35a.28.28,0,0,0-.09-.1.3.3,0,0,0-.08-.08.78.78,0,0,0-.24-.16,1.06,1.06,0,0,0-.57-.17,1.21,1.21,0,0,0-.58.16.81.81,0,0,0-.24.17.3.3,0,0,0-.08.08l-.09.1-6.62,9.35a1.22,1.22,0,0,0,2,1.4l4.43-6.25V54.37a1.21,1.21,0,0,0,2.42,0V39.49l4.42,6.25a1.23,1.23,0,0,0,1,.51A1.11,1.11,0,0,0,76,46,1.19,1.19,0,0,0,76.26,44.34Z"/><path class="cls-2" d="M51.59,69.68H47.24a1.21,1.21,0,1,1,0-2.42h4.35a1.21,1.21,0,0,1,0,2.42Z"/><path class="cls-2" d="M59.19,75.93H39.67a4.76,4.76,0,0,1-4.76-4.76h0V28.83a4.76,4.76,0,0,1,4.76-4.76H59.19A4.76,4.76,0,0,1,64,28.78v3.74a1.21,1.21,0,1,1-2.42,0h0V28.83a2.34,2.34,0,0,0-2.34-2.34H39.67a2.34,2.34,0,0,0-2.34,2.34h0V71.17a2.34,2.34,0,0,0,2.34,2.34H59.19a2.34,2.34,0,0,0,2.34-2.34V67.48a1.21,1.21,0,1,1,2.42,0h0v3.69a4.76,4.76,0,0,1-4.76,4.76Z"/><path class="cls-2" d="M52.16,69.68H47.81a1.21,1.21,0,1,1,0-2.42h4.35a1.21,1.21,0,1,1,0,2.42Z"/><path class="cls-2" d="M59.76,75.93H40.24a4.77,4.77,0,0,1-4.76-4.76V28.83a4.77,4.77,0,0,1,4.76-4.76H59.76a4.77,4.77,0,0,1,4.76,4.76v3.69a1.21,1.21,0,1,1-2.42,0h0V28.83a2.34,2.34,0,0,0-2.34-2.34H40.24a2.34,2.34,0,0,0-2.34,2.34h0V71.17a2.34,2.34,0,0,0,2.34,2.34H59.76a2.34,2.34,0,0,0,2.34-2.34V67.48a1.21,1.21,0,1,1,2.42,0v3.69A4.77,4.77,0,0,1,59.76,75.93Z"/><path class="cls-3" d="M0,0H100V100H0Z"/></svg>