<?xml version="1.0" encoding="utf-8"?>
<!-- Generator: Adobe Illustrator 24.0.3, SVG Export Plug-In . SVG Version: 6.00 Build 0)  -->
<svg version="1.1" id="Layer_1" xmlns="http://www.w3.org/2000/svg" xmlns:xlink="http://www.w3.org/1999/xlink" width="21px" height="24px"
	 viewBox="0 0 122.67 123.26" style="enable-background:new 0 0 122.67 123.26;" xml:space="preserve">
<style type="text/css">
	.st0{fill:#00061C;}
	.st1{fill-rule:evenodd;clip-rule:evenodd;fill:#00061C;}
</style>
<g>
	<g>
		<path class="st0" d="M1.19,45.38c-0.41,0-0.71-0.09-0.9-0.26C0.1,44.94,0,44.63,0,44.19V12.39c0-0.44,0.1-0.75,0.29-0.93
			c0.19-0.17,0.49-0.26,0.9-0.26h3.43c0.73,0,1.18,0.35,1.34,1.05l0.33,1.24c0.95-0.92,2.11-1.65,3.45-2.19
			c1.35-0.54,2.73-0.81,4.12-0.81c3.08,0,5.52,1.13,7.32,3.39c1.79,2.26,2.69,5.31,2.69,9.15c0,2.64-0.45,4.94-1.34,6.91
			c-0.89,1.97-2.1,3.49-3.62,4.55c-1.53,1.06-3.27,1.6-5.24,1.6c-1.3,0-2.54-0.21-3.72-0.62c-1.18-0.41-2.18-0.99-3-1.72v10.44
			c0,0.44-0.09,0.75-0.26,0.93c-0.17,0.17-0.49,0.26-0.93,0.26H1.19z M11.63,30.84c1.78,0,3.09-0.6,3.93-1.81
			c0.84-1.21,1.26-3.11,1.26-5.72c0-2.64-0.41-4.56-1.24-5.77c-0.83-1.21-2.14-1.81-3.96-1.81c-1.65,0-3.21,0.43-4.67,1.29v12.54
			C8.36,30.41,9.91,30.84,11.63,30.84"/>
		<path class="st0" d="M29.65,35.56c-0.41,0-0.72-0.1-0.91-0.29c-0.19-0.19-0.29-0.49-0.29-0.91V12.39c0-0.44,0.09-0.75,0.29-0.93
			c0.19-0.17,0.49-0.26,0.91-0.26h3.43c0.73,0,1.18,0.35,1.33,1.05l0.62,2.57c1.27-1.4,2.47-2.39,3.6-2.98
			c1.13-0.59,2.33-0.88,3.6-0.88h0.67c0.44,0,0.76,0.09,0.95,0.26c0.19,0.17,0.29,0.48,0.29,0.93v4c0,0.41-0.09,0.71-0.26,0.91
			c-0.18,0.19-0.49,0.29-0.93,0.29c-0.22,0-0.51-0.02-0.86-0.05c-0.35-0.03-0.79-0.05-1.33-0.05c-0.73,0-1.62,0.1-2.67,0.31
			c-1.05,0.21-1.94,0.47-2.67,0.79v16.02c0,0.41-0.09,0.71-0.26,0.91c-0.17,0.19-0.48,0.29-0.93,0.29H29.65z"/>
		<path class="st0" d="M50.68,7.44c-1.21,0-2.18-0.33-2.91-1c-0.73-0.67-1.1-1.57-1.1-2.72c0-1.14,0.36-2.05,1.1-2.72
			c0.73-0.67,1.7-1,2.91-1s2.18,0.33,2.91,1c0.73,0.67,1.1,1.57,1.1,2.72c0,1.14-0.36,2.05-1.1,2.72
			C52.86,7.1,51.89,7.44,50.68,7.44 M48.39,35.56c-0.41,0-0.71-0.1-0.9-0.29c-0.19-0.19-0.29-0.49-0.29-0.91V12.39
			c0-0.44,0.1-0.75,0.29-0.93c0.19-0.17,0.49-0.26,0.9-0.26h4.58c0.45,0,0.75,0.09,0.93,0.26c0.17,0.18,0.26,0.49,0.26,0.93v21.98
			c0,0.41-0.09,0.71-0.26,0.91c-0.17,0.19-0.48,0.29-0.93,0.29H48.39z"/>
		<path class="st0" d="M61.16,35.56c-0.41,0-0.71-0.1-0.9-0.29c-0.19-0.19-0.29-0.49-0.29-0.91V12.39c0-0.44,0.1-0.75,0.29-0.93
			c0.19-0.17,0.49-0.26,0.9-0.26h3.43c0.73,0,1.18,0.35,1.33,1.05l0.38,1.29c1.68-1.11,3.2-1.9,4.55-2.36
			c1.35-0.46,2.74-0.69,4.17-0.69c2.86,0,4.88,1.02,6.05,3.05c1.62-1.08,3.15-1.86,4.58-2.34c1.43-0.48,2.91-0.72,4.43-0.72
			c2.22,0,3.95,0.62,5.17,1.86c1.22,1.24,1.84,2.97,1.84,5.19v16.83c0,0.41-0.09,0.71-0.26,0.91c-0.17,0.19-0.48,0.29-0.93,0.29
			h-4.58c-0.41,0-0.71-0.1-0.91-0.29c-0.19-0.19-0.29-0.49-0.29-0.91v-15.3c0-2.16-0.97-3.24-2.91-3.24c-1.71,0-3.45,0.41-5.19,1.24
			v17.3c0,0.41-0.09,0.71-0.26,0.91c-0.17,0.19-0.48,0.29-0.93,0.29h-4.58c-0.41,0-0.71-0.1-0.91-0.29
			c-0.19-0.19-0.29-0.49-0.29-0.91v-15.3c0-2.16-0.97-3.24-2.91-3.24c-1.78,0-3.53,0.43-5.24,1.29v17.26c0,0.41-0.09,0.71-0.26,0.91
			c-0.17,0.19-0.48,0.29-0.93,0.29H61.16z"/>
		<path class="st0" d="M113.46,36.32c-3.88,0-6.84-0.91-9.22-3.33c-1.56-1.59-3.03-4.53-3.03-9.57c0-4.07,1.29-7.18,3.39-9.43
			c2.1-2.26,5.3-3.31,8.33-3.31c3.78,0,6.02,0.86,7.74,2.57c0.28,0.28,2.01,2.06,2.01,4.93c0,0.99,0.03,2.01-0.65,3.44
			c-0.46,0.97-1.15,1.58-1.33,1.74c-2.81,2.57-8.32,2.4-10.19,2.3l-3.02-0.46c0.2,2.09,0.78,3.73,2.06,4.67
			c1.2,0.88,2.52,1.25,5.22,1.25c1.35,0,3.16-0.27,5.48-0.87c0.13-0.03,0.37-0.1,0.45-0.11c0.05-0.01,0.28-0.03,0.44,0.02
			c0.25,0.09,0.54,0.33,0.54,1.02v2.19c0,0.51-0.06,0.87-0.2,1.07c-0.14,0.21-0.43,0.41-0.84,0.56
			C118.23,35.89,115.97,36.32,113.46,36.32 M116.35,18.46c0-2.32-1.64-2.99-3.66-2.99c-1.33,0-2.62,0.48-3.49,1.44
			c-0.86,0.94-1.39,2.37-1.61,4.16c0,0,3.57,0.65,6.16,0.22C115.08,21.07,116.35,20.32,116.35,18.46"/>
	</g>
	<g>
		<path class="st0" d="M83.99,85.49c-4.1,0-7.22-0.96-9.73-3.51c-1.65-1.67-3.2-4.78-3.2-10.11c0-4.29,1.36-7.57,3.57-9.96
			c2.21-2.38,5.59-3.5,8.79-3.5c3.99,0,6.36,0.91,8.17,2.72c0.3,0.3,2.12,2.18,2.12,5.2c0,1.04,0.03,2.12-0.68,3.63
			c-0.48,1.02-1.22,1.66-1.41,1.84c-2.97,2.72-8.79,2.54-10.75,2.42l-3.18-0.49c0.21,2.21,0.83,3.94,2.18,4.93
			c1.27,0.93,2.66,1.32,5.51,1.32c1.43,0,3.33-0.29,5.78-0.92c0.13-0.04,0.39-0.1,0.48-0.11c0.06-0.01,0.3-0.04,0.46,0.02
			c0.27,0.09,0.57,0.35,0.57,1.07v2.31c0,0.54-0.06,0.92-0.21,1.13c-0.15,0.22-0.45,0.43-0.89,0.6
			C89.03,85.03,86.65,85.49,83.99,85.49 M87.05,66.63c0-2.45-1.73-3.16-3.86-3.16c-1.4,0-2.76,0.51-3.69,1.52
			c-0.91,0.99-1.47,2.5-1.7,4.39c0,0,3.77,0.68,6.5,0.23C85.71,69.39,87.05,68.6,87.05,66.63"/>
		<path class="st0" d="M10.77,84.69c-0.34,0-0.61-0.04-0.83-0.13c-0.22-0.08-0.4-0.22-0.55-0.4c-0.15-0.18-0.29-0.44-0.43-0.78
			l-8.6-22.39c-0.1-0.27-0.18-0.5-0.25-0.7C0.03,60.08,0,59.9,0,59.73c0-0.5,0.34-0.75,1.01-0.75h5.03c0.54,0,0.93,0.1,1.18,0.3
			c0.25,0.2,0.45,0.54,0.58,1.01l5.18,17.81l5.28-17.81c0.13-0.47,0.33-0.81,0.58-1.01c0.25-0.2,0.65-0.3,1.18-0.3h4.88
			c0.67,0,1.01,0.25,1.01,0.75c0,0.17-0.03,0.35-0.1,0.55c-0.07,0.2-0.15,0.44-0.25,0.7l-8.61,22.39c-0.14,0.34-0.28,0.59-0.43,0.78
			c-0.15,0.19-0.33,0.32-0.53,0.4c-0.2,0.08-0.49,0.13-0.86,0.13H10.77z"/>
		<path class="st0" d="M32.72,55c-1.28,0-2.3-0.35-3.07-1.06c-0.77-0.7-1.16-1.66-1.16-2.87c0-1.21,0.38-2.16,1.16-2.87
			c0.77-0.7,1.79-1.06,3.07-1.06c1.28,0,2.3,0.35,3.07,1.06c0.77,0.7,1.16,1.66,1.16,2.87c0,1.21-0.38,2.16-1.16,2.87
			C35.01,54.65,33.99,55,32.72,55 M30.3,84.69c-0.44,0-0.75-0.1-0.96-0.3c-0.2-0.2-0.3-0.52-0.3-0.96v-23.2c0-0.47,0.1-0.8,0.3-0.98
			c0.2-0.18,0.52-0.28,0.96-0.28h4.83c0.47,0,0.8,0.09,0.98,0.28c0.18,0.19,0.28,0.51,0.28,0.98v23.2c0,0.44-0.09,0.75-0.28,0.96
			c-0.18,0.2-0.51,0.3-0.98,0.3H30.3z"/>
		<path class="st0" d="M51.77,85.24c-2.18,0-4.08-0.56-5.68-1.69c-1.61-1.12-2.84-2.68-3.7-4.68c-0.86-1.99-1.28-4.3-1.28-6.92
			c0-4.16,0.99-7.49,2.97-9.99c1.98-2.5,4.6-3.75,7.85-3.75c2.65,0,4.95,0.76,6.89,2.27V48.71c0-0.47,0.1-0.8,0.3-0.98
			c0.2-0.18,0.52-0.28,0.96-0.28h4.83c0.47,0,0.8,0.09,0.98,0.28c0.18,0.18,0.28,0.51,0.28,0.98v34.72c0,0.44-0.09,0.75-0.28,0.96
			c-0.18,0.2-0.51,0.3-0.98,0.3h-4.03c-0.4,0-0.71-0.08-0.93-0.25c-0.22-0.17-0.38-0.45-0.48-0.86l-0.3-1.16
			C57.09,84.3,54.63,85.24,51.77,85.24 M54.19,79.71c1.61,0,3.15-0.47,4.63-1.41V65.01c-1.44-0.84-3.1-1.26-4.98-1.26
			c-1.78,0-3.1,0.66-3.98,1.99c-0.87,1.33-1.31,3.33-1.31,6.01c0,2.68,0.46,4.68,1.38,5.99C50.86,79.05,52.28,79.71,54.19,79.71"/>
		<path class="st0" d="M109.94,85.44c-3.99,0-7.11-1.2-9.36-3.6c-2.25-2.4-3.37-5.74-3.37-10.04c0-4.26,1.12-7.59,3.37-9.99
			c2.25-2.4,5.37-3.6,9.36-3.6c3.99,0,7.11,1.2,9.36,3.6c2.25,2.4,3.37,5.73,3.37,9.99c0,4.3-1.12,7.64-3.37,10.04
			C117.05,84.24,113.93,85.44,109.94,85.44 M109.94,79.81c3.52,0,5.28-2.67,5.28-8c0-5.3-1.76-7.95-5.28-7.95
			c-3.52,0-5.28,2.65-5.28,7.95C104.66,77.14,106.42,79.81,109.94,79.81"/>
	</g>
	<g>
		<path class="st1" d="M0.22,96.93v0.37c0.05,0.32,0.21,0.65,0.53,0.96c16.06,15.62,37.27,25.01,60.82,25.01
			c16.81,0,36.33-5.7,49.79-16.4c2.22-1.78,0.32-4.43-1.96-3.4c-15.09,6.9-31.49,10.24-46.42,10.24c-22.12,0-43.54-6.54-60.86-17.4
			c-0.31-0.19-0.61-0.28-0.87-0.28C0.7,96.03,0.3,96.42,0.22,96.93"/>
		<path class="st1" d="M100.26,98.62c-0.48,0.36-0.73,0.78-0.78,1.13v0.22c0.06,0.41,0.44,0.68,1.11,0.6
			c4.33-0.56,14-1.8,15.72,0.57c1.72,2.37-1.91,12.13-3.54,16.48c-0.49,1.31,0.56,1.85,1.67,0.85c7.22-6.48,9.09-20.08,7.61-22.04
			c-0.71-0.94-4.02-1.82-8.13-1.82C109.53,94.61,104.24,95.61,100.26,98.62"/>
	</g>
</g>
</svg>
