<svg width="24px" height="24px" viewBox="0 0 24 24" version="1.1" xmlns="http://www.w3.org/2000/svg"
                    xmlns:xlink="http://www.w3.org/1999/xlink">
                    <!-- Generator: Sketch 55.1 (78136) - https://sketchapp.com -->
                    <title>icon-facebook</title>
                    <desc>Created with Sketch.</desc>
                    <g id="icon-facebook" stroke="none" stroke-width="1" fill="none" fill-rule="evenodd">
                      <g id="Icon" fill-rule="nonzero">
                        <rect id="Path" x="0" y="0" width="24" height="24"></rect>
                        <path
                          d="M15.7997105,22 L15.7997105,14.2548978 L18.3993838,14.2548978 L18.788648,11.236494 L15.7997105,11.236494 L15.7997105,9.30943392 C15.7997105,8.43553638 16.0423798,7.84000404 17.2955374,7.84000404 L18.8938797,7.8393056 L18.8938797,5.13962106 C18.6174525,5.10283681 17.6686598,5.02065428 16.5648133,5.02065428 C14.2603476,5.02065428 12.682648,6.4273026 12.682648,9.01050369 L12.682648,11.236494 L10.0763007,11.236494 L10.0763007,14.2548978 L12.682648,14.2548978 L12.682648,22 L3.10384647,22 C2.49403027,22 2,21.5056631 2,20.8960845 L2,3.1038379 C2,2.49410404 2.49410788,2 3.10384647,2 L20.8962311,2 C21.5058145,2 22,2.49410404 22,3.1038379 L22,20.8960845 C22,21.5057407 21.5057369,22 20.8962311,22 L15.7997105,22 Z"
                          id="Color" fill="#FFFFFF"></path>
                      </g>
                    </g>
                  </svg>