<svg id="Capa_1" data-name="Capa 1" xmlns="http://www.w3.org/2000/svg" width="100" height="100" viewBox="0 0 100 100"><defs><style>.cls-1{fill:#00377d;}.cls-2{fill:none;}</style></defs><path class="cls-1" d="M27.2,42.07H72.8V50H27.2Z"/><path class="cls-1" d="M70.27,67.91H29.73A3.74,3.74,0,0,1,26,64.18V35.82a3.75,3.75,0,0,1,3.74-3.73H70.27A3.74,3.74,0,0,1,74,35.82V64.18A3.74,3.74,0,0,1,70.27,67.91ZM29.73,34.51a1.32,1.32,0,0,0-1.32,1.31V64.18a1.31,1.31,0,0,0,1.31,1.31H70.27a1.31,1.31,0,0,0,1.32-1.3h0V35.82a1.32,1.32,0,0,0-1.32-1.31Z"/><path class="cls-2" d="M0,0H100V100H0Z"/></svg>